# xmcd
#
# Track frame offsets: 
#        150
#        19052
#        34412
#        54883
#        71952
#        90580
#        105516
#        121371
#        142275
#        159045
#        177202
#        194470
#        212595
#        228918
#
# Disc length: 3272 seconds
#
# Revision: 6
# Processed by: cddbd v1.5.2PL0 Copyright (c) Steve Scherf et al.
# Submitted via: ExactAudioCopy v1.0b1
#
DISCID=bd0cc60e
DTITLE=Super Junior - Super Junior Vol. 2 Repackage
DYEAR=2007
DGENRE=Korean
TTITLE0=돈 돈! (Don't Don) 
TTITLE1=소원이 있나요 (Sapphire Blue)
TTITLE2=You're my endless love (말하자면) 
TTITLE3=미워(Hate U, Love U)
TTITLE4=Disco Drive
TTITLE5=Marry U
TTITLE6=I am
TTITLE7=사랑이 떠나다 (She's gone)
TTITLE8=Missin' U
TTITLE9=거울 (Mirror)
TTITLE10=우리들의 사랑 (Our Love) 
TTITLE11=Midnight Fantasy
TTITLE12=Thank you...
TTITLE13=아주 먼 옛날 (Song for you) 
EXTD=
EXTT0=
EXTT1=
EXTT2=
EXTT3=
EXTT4=
EXTT5=
EXTT6=
EXTT7=
EXTT8=
EXTT9=
EXTT10=
EXTT11=
EXTT12=
EXTT13=
PLAYORDER=
